<?xml version="1.0" encoding="utf-8"?>
<!-- Generator: Adobe Illustrator 23.0.5, SVG Export Plug-In . SVG Version: 6.00 Build 0)  -->
<svg version="1.1" id="Layer_1" xmlns="http://www.w3.org/2000/svg" xmlns:xlink="http://www.w3.org/1999/xlink" x="0px" y="0px"
	 viewBox="0 0 1920 448.6" style="enable-background:new 0 0 1920 448.6;" xml:space="preserve">
<style type="text/css">
	.st0{fill:#FFFFFF;}
	.st1{fill:#FFFFFF;}
	.st2{fill:#FFFFFF;}
</style>
<g>
	<path class="st0" d="M303.9,192.2c3.5,33-9.3,63.1-31.6,83.3c-17.3,15.8-40.4,25.4-65.8,25.4s-48.5-9.7-65.8-25.4
		c-19.8-17.9-32.1-43.8-32.1-72.5c0-57.8,50.1-103.9,109.2-97.3C263,110.7,299,146.9,303.9,192.2z"/>
	<path class="st0" d="M345.8,353.1c-5.3-12-14.7-27.3-14.8-27.5l0,0c-0.4-0.6-0.8-1.2-1.2-1.8c-3.8-5.4-8-10.5-12.5-15.3
		c-8.5-9-22.5-9.6-32.4-2.1c-21.8,16.6-49,26.5-78.4,26.5s-56.5-9.9-78.3-26.4c-9.9-7.6-24.6-6.5-32.9,2.6
		c-3.8,4.1-7.2,9.1-10.3,14.8c-1.3,2.5-4.7,2.9-6.6,0.9c-32.8-35.5-51.2-84.6-45.3-137.9c9-81.1,72.4-144.6,153.4-153.7
		C291.6,21.3,381,103.7,381,206.5c0,31.4-8.4,60.9-23.1,86.4c-2.9,5-2.8,11.1,0.2,16v0c0.3,0.4,4.6,7.4,9.2,16.1
		c1.6,3,5.8,3.3,7.8,0.5c27.5-38.8,41.9-87.5,36.8-139.5C402.6,89.4,326.4,12,230,1.3C105.7-12.5,0,84.8,0,206.5
		c0,55.3,21.8,105.6,57.4,142.7c8.1,8.4,11.4,20.3,9.1,31.8c-1.4,7.2-2.6,14.2-3.6,20.9c-3.6,24.6,15.5,46.7,40.4,46.7H318
		c23,0,41.7-19.2,40.7-42.3c0-1-0.1-2.1-0.2-3.1c-1-16.9-5.3-33.3-12.1-48.8L345.8,353.1z"/>
	<g>
		<path class="st0" d="M464.9,362.6V142.5c8.2-1.7,16.5-2.1,25-2.1c8.6,0,16.8,0.3,26.1,2.1v220.1c-8.2,1.4-16.5,2.1-25.1,2.1
			S473.8,363.9,464.9,362.6z"/>
		<path class="st0" d="M717.3,263.7v98.9c-8.6,1.4-17.2,2.1-25.7,2.1c-8.6,0-17.2-0.7-25.7-2.1v-90.6c0-23.3-12.7-31.6-30.9-31.6
			c-12,0-21.6,3.4-27.5,6.9v115.4c-8.6,1.4-17.2,2.1-25.7,2.1c-8.6,0-16.8-0.7-25.4-2.1V221.1c12.7-11.3,41.9-27.1,82.4-27.1
			C692.9,194,717.3,223.5,717.3,263.7z"/>
		<path class="st0" d="M742.5,347.8c2.7-16.1,10.3-28.2,20.3-34.3c12,7.5,28.8,16.5,53.6,16.5c15.8,0,21.3-5.8,21.3-13.1
			c0-8.6-8.6-13-35.4-17.9c-26.8-5.5-54.9-15.1-54.9-51.2c0-33.6,30.9-52.9,71.8-52.9c34,0,54.9,7.9,66.3,15.1
			c-2.1,16.5-8.6,28.5-17.9,35.7c-11-6.2-29.2-12-47.7-12c-16.1,0-23.7,3.4-23.7,11.7c0,8.2,7.2,11.3,33,16.1
			c32.3,5.5,59.4,16.1,59.4,51.5c0,34-26.1,55.3-73.8,55.3C777.8,368.4,753.1,356.7,742.5,347.8z"/>
		<path class="st0" d="M912.2,147.6c0-16.8,13.7-30.6,30.9-30.6c16.8,0,30.9,13.7,30.9,30.6c0,16.8-14.1,30.9-30.9,30.9
			S912.2,164.4,912.2,147.6z M917.3,362.6V199.5c8.2-1.4,16.8-2.1,25.4-2.1c8.2,0,16.8,0.7,25.7,2.1v163.1
			c-8.2,1.4-16.8,2.1-25.7,2.1C934.5,364.6,925.9,363.9,917.3,362.6z"/>
		<path class="st0" d="M1165.3,137v215.3c-17.2,8.6-45.3,16.1-73.5,16.1c-59.4,0-95.1-30.9-95.1-86.2c0-53.6,40.5-87.2,91-87.2
			c10.6,0,18.9,1,26.4,3.1V137c8.6-1.4,17.2-2.1,25.4-2.1C1148.1,134.9,1156.7,135.6,1165.3,137z M1114.1,321.7v-78.3
			c-7.5-3.8-15.4-4.8-23.3-4.8c-24.4,0-42.6,16.5-42.6,42.9c0,26.1,17.2,43.3,41.9,43.3C1098.3,324.8,1106.2,323.7,1114.1,321.7z"/>
		<path class="st0" d="M1352.5,345c-13.8,11-37.1,23.4-72.1,23.4c-49.8,0-87.2-30.9-87.2-86.2c0-51.1,36.4-87.2,85.5-87.2
			c56,0,76.6,41.9,76.9,78.3l-107.1,32.6c5.8,14.4,17.9,22.3,38.5,22.3c18.9,0,35.4-9.3,47.4-17.9C1344.6,319,1351.1,332,1352.5,345
			z M1244.3,274.3l59.7-18.9c-1-8.6-7.5-20.6-26.4-20.6C1256,234.8,1245.7,249.9,1244.3,274.3z"/>
		<path class="st0" d="M1381.1,252c0-65.2,46-116,109.9-116c63.9,0,109.9,49.1,109.9,116c0,64.6-46,115.7-109.9,115.7
			C1427.1,367.7,1381.1,318.3,1381.1,252z M1571.6,252c0-53.2-32-90.3-80.7-90.3c-48.8,0-80.7,37.1-80.7,90.3c0,52.2,32,90,80.7,90
			C1539.7,341.9,1571.6,304.2,1571.6,252z"/>
		<path class="st0" d="M1767.5,201.2v150.4c-19.6,8.6-41.5,15.8-74.5,15.8c-46,0-68.7-24.7-68.7-63.5V201.2c4.8-1,9.6-1.4,14.1-1.4
			c4.5,0,9.3,0.3,13.7,1.4v91.3c0,30.9,7.2,49.1,47.4,49.1c15.1,0,28.2-2.8,40.2-7.2V201.2c4.8-1,9.6-1.4,14.1-1.4
			C1758.2,199.8,1763,200.2,1767.5,201.2z"/>
		<path class="st0" d="M1920,349.8c-8.6,7.9-25.4,17.2-45.3,17.2c-32.6,0-56.3-15.4-56.3-54.3v-88.2h-27.8c-1-4.1-1.4-7.2-1.4-11.3
			c0-3.8,0.3-7.2,1.4-11h27.8v-43.6c4.4-1,8.9-1.4,13.7-1.4c4.4,0,8.9,0.3,13.4,1.4v43.6h64.2c1,3.8,1.4,7.2,1.4,11
			c0,4.1-0.3,7.2-1.4,11.3h-64.2v82.7c0,29.2,13.7,35.4,31.2,35.4c13.1,0,25.7-7.9,30.9-12.4C1914.5,335.1,1918.6,342.6,1920,349.8z
			"/>
	</g>
</g>
</svg>
